<svg width="37" height="49" viewBox="0 0 37 49" fill="none" xmlns="http://www.w3.org/2000/svg">
<path d="M37 37.4825L37 18.9825C37 8.76522 28.7173 0.482497 18.5 0.482496C8.28274 0.482494 1.13952e-05 8.76522 1.00554e-05 18.9825L7.62939e-06 37.4825L37 37.4825Z" fill="#0B477E"/>
<path d="M7.78921 37.4825C7.78921 31.388 12.7298 26.4474 18.8243 26.4474C24.9188 26.4474 29.8594 31.388 29.8594 37.4825L7.78921 37.4825Z" fill="#9EE2FF"/>
<path d="M7.78921 37.4825C7.78921 43.577 12.7298 48.5176 18.8243 48.5176C24.9188 48.5176 29.8594 43.577 29.8594 37.4825L7.78921 37.4825Z" fill="#FFDD55"/>
<path d="M18.5 22.5527C21.5473 22.5527 24.0176 20.0824 24.0176 17.0351C24.0176 13.9879 21.5473 11.5176 18.5 11.5176C15.4528 11.5176 12.9825 13.9879 12.9825 17.0351C12.9825 20.0824 15.4528 22.5527 18.5 22.5527Z" fill="#FAFAFF"/>
</svg>
