<svg width="32" height="32" viewBox="0 0 32 32" fill="none" xmlns="http://www.w3.org/2000/svg">
<path d="M27.4697 28.5303C27.7626 28.8232 28.2374 28.8232 28.5303 28.5303C28.8232 28.2374 28.8232 27.7626 28.5303 27.4697L27.4697 28.5303ZM14 23.25C8.89137 23.25 4.75 19.1086 4.75 14H3.25C3.25 19.9371 8.06294 24.75 14 24.75V23.25ZM4.75 14C4.75 8.89137 8.89137 4.75 14 4.75V3.25C8.06294 3.25 3.25 8.06294 3.25 14H4.75ZM14 4.75C19.1086 4.75 23.25 8.89137 23.25 14H24.75C24.75 8.06294 19.9371 3.25 14 3.25V4.75ZM28.5303 27.4697L21.6014 20.5407L20.5407 21.6014L27.4697 28.5303L28.5303 27.4697ZM23.25 14C23.25 16.5545 22.2155 18.866 20.5407 20.5407L21.6014 21.6014C23.5459 19.6569 24.75 16.9683 24.75 14H23.25ZM20.5407 20.5407C18.866 22.2155 16.5545 23.25 14 23.25V24.75C16.9683 24.75 19.6569 23.5459 21.6014 21.6014L20.5407 20.5407Z" fill="#FAFAFF"/>
</svg>
